<svg width="467" height="105" viewBox="0 0 467 105" fill="none" xmlns="http://www.w3.org/2000/svg">
<g clip-path="url(#clip0)">
<path d="M120.906 44.3039C118.332 42.9463 116.375 41.0932 115.035 38.7348C113.696 36.3812 113.029 33.7651 113.029 30.8864H119.241C119.276 34.0921 120.234 36.5497 122.127 38.269C124.02 39.9883 126.595 40.8455 129.857 40.8455C134.033 40.8455 137.047 40.2658 138.905 39.1064C140.764 37.9469 141.693 36.1384 141.693 33.6858C141.693 32.3134 141.292 31.1193 140.492 30.1035C139.691 29.0927 138.307 28.1167 136.336 27.1852C134.364 26.2537 131.547 25.233 127.899 24.1181C124.376 23.038 121.727 22.1016 119.948 21.2989C118.169 20.4962 116.785 19.4359 115.791 18.113C114.798 16.79 114.299 14.9815 114.299 12.6924C114.299 10.7006 114.912 8.88219 116.132 7.24711C117.358 5.61204 119.167 4.32875 121.564 3.39725C123.961 2.46575 126.822 2 130.153 2C133.771 2 136.78 2.63917 139.177 3.91255C141.574 5.18592 143.334 6.83091 144.46 8.84255C145.587 10.8542 146.146 13.0046 146.146 15.2937L140.082 15.3432C140.082 12.7618 139.251 10.765 137.586 9.35785C135.92 7.95069 133.444 7.24711 130.148 7.24711C127.114 7.24711 124.667 7.68313 122.809 8.54527C120.951 9.41235 120.022 10.8245 120.022 12.7866C120.022 13.8964 120.313 14.7982 120.902 15.482C121.49 16.1707 122.468 16.8049 123.837 17.3945C125.206 17.9841 127.39 18.7373 130.395 19.6489C135.026 21.0858 138.54 22.4385 140.937 23.697C143.334 24.9555 145.039 26.3874 146.047 27.9878C147.06 29.5882 147.564 31.6346 147.564 34.1169C147.564 37.6794 146.225 40.6077 143.551 42.8968C140.877 45.1859 136.41 46.3304 130.148 46.3304C126.565 46.3354 123.481 45.6615 120.906 44.3039Z" fill="black"/>
<path d="M159.184 36.0643C159.658 37.4219 160.652 38.5565 162.169 39.4732C163.686 40.3898 165.88 40.8456 168.747 40.8456C171.712 40.8456 174.045 40.3452 175.74 39.3493C177.435 38.3534 178.448 36.8719 178.774 34.9098H184.398C183.973 38.4723 182.328 41.2222 179.456 43.1496C176.585 45.077 173.017 46.0432 168.742 46.0432C162.381 46.0432 158.062 44.3833 155.779 41.0636C153.496 37.7439 152.354 33.9932 152.354 29.8064C152.354 23.6575 153.772 19.0495 156.609 15.9776C159.446 12.9056 163.488 11.3696 168.742 11.3696C174.025 11.3696 178.063 12.9898 180.85 16.2253C183.637 19.4608 185.031 24.5295 185.031 31.4315H158.477C158.477 33.1608 158.714 34.7067 159.184 36.0643ZM176.061 19.0694C174.578 17.3352 172.137 16.4681 168.747 16.4681C165.322 16.4681 162.821 17.3451 161.24 19.0941C159.658 20.8432 158.754 23.4989 158.527 27.0664H178.631C178.404 23.4643 177.549 20.8035 176.061 19.0694Z" fill="black"/>
<path d="M210.186 42.5103C209.959 43.4913 209.43 44.294 208.595 44.9134C207.764 45.5327 206.81 45.8449 205.733 45.8449H200.203C199.126 45.8449 198.172 45.5327 197.341 44.9134C196.511 44.294 195.977 43.4913 195.75 42.5103L188.367 11.5132H194.09L201.379 42.0693H204.606L211.896 11.5132H217.569L210.186 42.5103Z" fill="black"/>
<path d="M228.699 36.0643C229.173 37.4219 230.166 38.5565 231.684 39.4732C233.201 40.3898 235.395 40.8456 238.261 40.8456C241.227 40.8456 243.559 40.3452 245.254 39.3493C246.95 38.3534 247.963 36.8719 248.289 34.9098H253.913C253.488 38.4723 251.842 41.2222 248.971 43.1496C246.1 45.077 242.531 46.0432 238.257 46.0432C231.896 46.0432 227.577 44.3833 225.294 41.0636C223.01 37.7439 221.869 33.9932 221.869 29.8064C221.869 23.6575 223.287 19.0495 226.124 15.9776C228.961 12.9056 233.003 11.3696 238.257 11.3696C243.54 11.3696 247.577 12.9898 250.365 16.2253C253.152 19.4608 254.546 24.5295 254.546 31.4315H227.982C227.992 33.1608 228.224 34.7067 228.699 36.0643ZM245.576 19.0694C244.093 17.3352 241.652 16.4681 238.261 16.4681C234.837 16.4681 232.336 17.3451 230.754 19.0941C229.173 20.8432 228.269 23.4989 228.041 27.0664H248.146C247.918 23.4643 247.058 20.8035 245.576 19.0694Z" fill="black"/>
<path d="M290.485 15.1946C293.045 17.6472 294.325 21.18 294.325 25.7879V45.8498H288.453V25.7879C288.453 22.6813 287.653 20.3178 286.057 18.7026C284.46 17.0824 282.355 16.2747 279.746 16.2747C276.029 16.2747 273.286 17.1666 271.527 18.9503C269.768 20.734 268.883 23.0132 268.883 25.7929V45.8548H263.012V16.2698H258.608V11.5132H263.891C265.325 11.5132 266.516 11.9888 267.465 12.9352C268.408 13.8816 268.883 15.0757 268.883 16.5175V18.1377C269.57 16.1112 270.84 14.5009 272.698 13.3068C274.556 12.1127 277.003 11.5181 280.037 11.5181C284.445 11.5132 287.925 12.742 290.485 15.1946Z" fill="black"/>
<path d="M305.039 44.4477C302.918 43.1892 301.297 41.5145 300.171 39.4186C299.044 37.3277 298.485 35.0386 298.485 32.5513H304.016C304.045 35.43 304.856 37.6448 306.437 39.1957C308.019 40.7515 310.03 41.5244 312.476 41.5244C315.086 41.5244 316.983 41.1231 318.175 40.3204C319.366 39.5177 319.959 38.3335 319.959 36.7629C319.959 34.9643 319.346 33.5571 318.125 32.5464C316.904 31.5306 314.804 30.7329 311.839 30.1433C303.294 28.5726 299.019 25.0448 299.019 19.55C299.019 16.9685 300.077 14.8974 302.197 13.3466C304.317 11.7957 307.48 11.0178 311.686 11.0178C314.75 11.0178 317.206 11.6966 319.049 13.0542C320.893 14.4118 322.197 15.9875 322.963 17.7861C323.729 19.5846 324.194 21.3485 324.357 23.0827L318.827 23.1323C318.664 20.8778 318.026 19.0545 316.919 17.6622C315.812 16.2748 314.068 15.5762 311.686 15.5762C309.402 15.5762 307.618 15.9379 306.328 16.6564C305.039 17.3748 304.396 18.4054 304.396 19.7481C304.396 21.2197 305.014 22.389 306.254 23.2561C307.495 24.1232 309.353 24.7872 311.834 25.243C316.301 26.0605 319.692 27.433 322.01 29.3654C324.322 31.2928 325.484 33.7157 325.484 36.6241C325.484 43.1 321.145 46.3355 312.471 46.3355C309.64 46.3355 307.159 45.7062 305.039 44.4477Z" fill="black"/>
<path d="M113 59.9265H142.647L142.697 65.2232H118.58L118.53 78.7596H135.798V83.9077H118.575L118.53 104.069H113V59.9265Z" fill="black"/>
<path d="M149.789 102.374C147.08 100.754 144.936 98.5736 143.354 95.8237C141.773 93.0787 140.982 90.0712 140.982 86.801C140.982 83.5656 141.773 80.5729 143.354 77.823C144.936 75.078 147.08 72.9029 149.789 71.3025C152.497 69.7021 155.447 68.8994 158.645 68.8994C161.842 68.8994 164.793 69.7021 167.501 71.3025C170.209 72.9029 172.359 75.078 173.96 77.823C175.557 80.5679 176.357 83.5606 176.357 86.801C176.357 90.0712 175.557 93.0787 173.96 95.8237C172.364 98.5686 170.209 100.754 167.501 102.374C164.793 103.994 161.842 104.802 158.645 104.802C155.447 104.802 152.497 103.994 149.789 102.374ZM165.124 97.7907C166.903 96.6809 168.247 95.1647 169.162 93.2522C170.076 91.3396 170.531 89.1892 170.531 86.801C170.531 84.4475 170.071 82.312 169.162 80.3995C168.247 78.4869 166.903 76.9807 165.124 75.8857C163.345 74.7906 161.185 74.2407 158.64 74.2407C156.129 74.2407 153.975 74.7906 152.181 75.8857C150.387 76.9807 149.042 78.4869 148.143 80.3995C147.244 82.312 146.799 84.4475 146.799 86.801C146.799 89.1892 147.248 91.3396 148.143 93.2522C149.037 95.1647 150.377 96.6759 152.156 97.7907C153.935 98.9006 156.095 99.4605 158.635 99.4605C161.175 99.4605 163.345 98.9006 165.124 97.7907Z" fill="black"/>
<path d="M215.978 99.2624V104.019H210.843C209.41 104.019 208.219 103.543 207.27 102.597C206.326 101.651 205.851 100.457 205.851 99.0147V97.3945C204.349 101.809 200.746 104.014 195.038 104.014C190.669 104.014 187.299 102.741 184.937 100.189C182.574 97.6372 181.388 94.154 181.388 89.7443V69.6824H187.111V89.7443C187.111 92.8807 187.798 95.254 189.167 96.8544C190.536 98.4548 192.478 99.2575 194.989 99.2575C198.839 99.2575 201.611 98.2616 203.306 96.2648C205.001 94.273 205.851 91.6568 205.851 88.4164V69.6824H211.574V99.2575H215.978V99.2624Z" fill="black"/>
<path d="M251.907 73.3636C254.467 75.8162 255.747 79.349 255.747 83.957V104.019H249.875V83.957C249.875 80.8503 249.075 78.4869 247.478 76.8716C245.882 75.2514 243.777 74.4438 241.167 74.4438C237.451 74.4438 234.708 75.3356 232.949 77.1194C231.189 78.9031 230.305 81.1823 230.305 83.9619V104.024H224.434V74.4487H220.03V69.6921H225.313C226.747 69.6921 227.938 70.1678 228.886 71.1142C229.83 72.0605 230.305 73.2546 230.305 74.6965V76.3167C230.992 74.2902 232.262 72.6799 234.12 71.4858C235.978 70.2917 238.425 69.6971 241.459 69.6971C245.867 69.6872 249.347 70.911 251.907 73.3636Z" fill="black"/>
<path d="M296.109 104.019H290.386V94.8972C288.69 101.636 284.465 105 277.714 105C274.581 105 271.68 104.207 269.006 102.622C266.333 101.036 264.212 98.8858 262.646 96.1706C261.079 93.4553 260.298 90.4973 260.298 87.2916C260.298 84.1205 261.079 81.1873 262.646 78.4869C264.212 75.7915 266.333 73.6461 269.006 72.0606C271.68 70.4751 274.581 69.6823 277.714 69.6823C284.465 69.6823 288.69 73.0516 290.386 79.7851V64.9257C290.386 63.4888 290.86 62.2947 291.804 61.3434C292.748 60.397 293.939 59.9214 295.377 59.9214H300.512V64.678H296.109V104.019ZM288.819 80.672C287.776 78.7099 286.323 77.1739 284.465 76.0641C282.607 74.9542 280.472 74.3943 278.055 74.3943C275.545 74.3943 273.385 74.9344 271.571 76.0145C269.762 77.0947 268.384 78.6059 267.44 80.5531C266.496 82.5003 266.021 84.7448 266.021 87.2965C266.021 89.8136 266.486 92.0531 267.415 94.0152C268.344 95.9773 269.708 97.5133 271.502 98.6232C273.296 99.733 275.48 100.293 278.055 100.293C280.403 100.293 282.513 99.7132 284.391 98.5538C286.264 97.3944 287.732 95.8237 288.794 93.8468C289.852 91.8698 290.386 89.6847 290.386 87.2965C290.381 84.839 289.862 82.6341 288.819 80.672Z" fill="black"/>
<path d="M306.23 88.5946C307.144 87.1379 308.449 85.9289 310.144 84.9677C311.839 84.0015 313.796 83.4069 316.015 83.179L332.65 81.5588C332.65 80.5431 332.324 79.4827 331.672 78.3729C331.019 77.263 329.902 76.3067 328.321 75.5041C326.739 74.7014 324.629 74.3 321.985 74.3C318.921 74.3 316.401 74.7906 314.429 75.7716C312.457 76.7527 311.32 78.3233 311.029 80.4787H305.839C306.329 76.9806 308.024 74.2852 310.925 72.3875C313.826 70.4898 317.527 69.5435 322.03 69.5435C328.42 69.5435 332.744 70.8267 334.993 73.3933C337.241 75.9599 338.368 79.126 338.368 82.8817V104.019H332.645V92.8854C332.092 94.5552 331.064 96.2696 329.561 98.0335C328.059 99.7974 326.25 101.269 324.13 102.448C322.01 103.627 319.776 104.212 317.429 104.212C313.322 104.212 310.193 103.221 308.058 101.244C305.923 99.2672 304.856 96.6412 304.856 93.371C304.861 91.6418 305.321 90.0463 306.23 88.5946ZM312.299 97.8154C313.44 98.9104 315.17 99.4604 317.483 99.4604C319.44 99.4604 321.387 98.955 323.329 97.9393C325.267 96.9236 327.056 95.3975 328.687 93.3512C330.317 91.3098 331.622 88.8126 332.601 85.8695L316.994 87.2915C314.908 87.4897 313.317 88.1833 312.225 89.3774C311.132 90.5716 310.584 91.9193 310.584 93.4255C310.589 95.2538 311.157 96.7204 312.299 97.8154Z" fill="black"/>
<path d="M363.617 99.1137V104.019H352.952C351.519 104.019 350.328 103.543 349.379 102.597C348.435 101.651 347.961 100.456 347.961 99.0146V73.9533H343.068V69.6872H347.961V64.782H353.683V69.6872H362.634V73.9533H353.683V99.1137H363.617Z" fill="black"/>
<path d="M392.281 99.2623V104.019H368.801V99.2623H377.751V74.4438H368.653V69.6873H378.339C379.772 69.6873 380.964 70.1629 381.912 71.1093C382.856 72.0556 383.331 73.2497 383.331 74.6916V99.2623H392.281ZM384.551 61.497L379.56 66.5013L374.519 61.497L379.56 56.4927L384.551 61.497Z" fill="black"/>
<path d="M402.21 102.374C399.501 100.754 397.356 98.5736 395.775 95.8237C394.194 93.0787 393.403 90.0712 393.403 86.801C393.403 83.5656 394.194 80.5729 395.775 77.823C397.356 75.078 399.501 72.9029 402.21 71.3025C404.918 69.7021 407.868 68.8994 411.066 68.8994C414.263 68.8994 417.214 69.7021 419.922 71.3025C422.63 72.9029 424.78 75.078 426.381 77.823C427.978 80.5679 428.778 83.5606 428.778 86.801C428.778 90.0712 427.978 93.0787 426.381 95.8237C424.785 98.5686 422.63 100.754 419.922 102.374C417.214 103.994 414.263 104.802 411.066 104.802C407.868 104.802 404.918 103.994 402.21 102.374ZM417.55 97.7907C419.329 96.6809 420.673 95.1647 421.587 93.2522C422.502 91.3396 422.956 89.1892 422.956 86.801C422.956 84.4475 422.497 82.312 421.587 80.3995C420.673 78.4869 419.329 76.9807 417.55 75.8857C415.771 74.7906 413.611 74.2407 411.066 74.2407C408.555 74.2407 406.4 74.7906 404.606 75.8857C402.813 76.9807 401.468 78.4869 400.569 80.3995C399.669 82.312 399.225 84.4475 399.225 86.801C399.225 89.1892 399.674 91.3396 400.569 93.2522C401.463 95.1647 402.803 96.6759 404.582 97.7907C406.361 98.9006 408.521 99.4605 411.061 99.4605C413.601 99.4605 415.771 98.9006 417.55 97.7907Z" fill="black"/>
<path d="M463.16 73.3636C465.72 75.8162 467 79.349 467 83.957V104.019H461.129V83.957C461.129 80.8503 460.328 78.4869 458.732 76.8716C457.136 75.2514 455.03 74.4438 452.421 74.4438C448.704 74.4438 445.962 75.3356 444.202 77.1194C442.443 78.9031 441.558 81.1823 441.558 83.9619V104.024H435.687V74.4487H431.284V69.6921H436.567C438 69.6921 439.191 70.1678 440.14 71.1142C441.084 72.0605 441.558 73.2546 441.558 74.6965V76.3167C442.245 74.2902 443.515 72.6799 445.373 71.4858C447.232 70.2917 449.678 69.6971 452.712 69.6971C457.121 69.6872 460.6 70.911 463.16 73.3636Z" fill="black"/>
</g>
<path d="M13.866 104H72.2503V100.936C72.2503 100.936 53.2732 97.7128 53.2732 78.9608C53.2732 60.2087 80 41.0975 80 17.4483C80 1.48515 69.4367 0 69.4367 0C69.4367 0 72.5192 12.3966 57.6046 12.3966C40.3222 12.3966 40.0009 2.13165 24.9455 2.13165C8.15395 2.13165 3.95244 18.761 3.95244 18.761V7.04503H0V45.7559L4.61119 45.6984C4.61119 45.6984 4.15819 35.922 14.3786 35.922C24.599 35.922 26.8405 43.4195 39.5822 43.4195C52.3239 43.4195 64.1451 28.4459 64.1451 16.7371H68.7689C68.7689 16.7371 69.0017 33.9914 49.3243 44.6802C27.1185 56.7446 3.49584 74.5754 13.866 104Z" fill="black"/>
<defs>
<clipPath id="clip0">
<rect width="354" height="103" fill="white" transform="translate(113 2)"/>
</clipPath>
</defs>
</svg>
