<svg width="212" height="277" viewBox="0 0 212 277" fill="none" xmlns="http://www.w3.org/2000/svg">
<path d="M36.745 277H191.463V268.84C191.463 268.84 141.174 260.254 141.174 210.309C141.174 160.364 212 109.462 212 46.4728C212 3.95564 184.007 0 184.007 0C184.007 0 192.176 33.0179 152.652 33.0179C106.854 33.0179 106.002 5.67756 66.1056 5.67756C21.608 5.67756 10.474 49.9692 10.474 49.9692V18.7642H0V121.869L12.2196 121.716C12.2196 121.716 11.0192 95.6767 38.1033 95.6767C65.1874 95.6767 71.1274 115.646 104.893 115.646C138.658 115.646 169.985 75.7646 169.985 44.5787H182.238C182.238 44.5787 182.855 90.5349 130.71 119.004C71.8639 151.137 9.26397 198.629 36.745 277Z" fill="black"/>
</svg>
